<?xml version="1.0" encoding="UTF-8"?>
<svg xmlns="http://www.w3.org/2000/svg" viewBox="0 0 125 100">
  <g fill="#4dbdeb">
    <path d="m74.94 98a21.83 21.83 0 0 1 -17.71-9.63l-17.92-26c-5.27-7.23-8.12-12.73-8.12-21a31.31 31.31 0 0 1 62.62 0 2 2 0 1 1 -4 0 27.31 27.31 0 0 0 -54.62 0c0 7.24 2.48 12 7.37 18.68l0 0 18 26.1a17.72 17.72 0 0 0 14.38 7.85 14.9 14.9 0 0 0  14.87-14.87 2 2 0 0 1  4 0 18.89 18.89 0 0 1 -18.87 18.87z"></path>
    <path d="m70.14 80.14a7.84 7.84 0 0 1 -6.14-3.09l-15.9-20.21v-.06c-3.14-4.62-5.37-8.33-5.37-14a21 21 0 0 1 42 0 2 2 0 1 1 -4 0 17 17 0 0 0 -34 0c0 4.19 1.37 6.89 4.65 11.7l15.8 20.15a3.79 3.79 0 0 0 3.23 1.51c1.79-.13 3.56-1.64 5-4.27a2 2 0 0 1 3.51 1.94c-2.72 4.93-6 6.16-8.22 6.32a4.61 4.61 0 0 1 -.56.01z"></path>
    <path d="m82.13 60.33a9.75 9.75 0 1 1 0-19.49 2 2 0 1 1  0 4 5.76 5.76 0 0 0  0 11.51 2 2 0 1 1  0 4z"></path>
    <path d="m79.93 43.9c-4.69 0-14.89-.61-23.51-5.31a2 2 0 1 1 1.92-3.51c10.36 5.65 23.76 4.77 23.89 4.76a2 2 0 1 1  .29 4c-.14 0-1.09.06-2.59.06z"></path>
    <path d="m60.46 52.56a2 2 0 0 1 -1.36-3.46c5.32-5 15.69-6.2 16.12-6.25a2 2 0 1 1  .45 4h0c-.09 0-9.49 1.14-13.85 5.2a2 2 0 0 1 -1.36.51z"></path>
  </g>
</svg>
