<?xml version="1.0" encoding="UTF-8"?>
<svg xmlns="http://www.w3.org/2000/svg" viewBox="0 0 125 100">
  <g fill="#4dbdeb">
    <path d="m85.27 72.21 1.81 2.73c.16-.14.33-.29.48-.44z"></path>
    <path d="m37.25 74.5.49.44 1.81-2.73z"></path>
    <path d="m103.29 46.88a40.88 40.88 0 0 0 -1.14-9.59 8.85 8.85 0 0 0  6-7.84h-8.77a41 41 0 0 0 -14.65-16.8 8.83 8.83 0 0 0  2.57-5.65h-16.12a41 41 0 0 0 -17.55 0h-15.92a8.73 8.73 0 0 0 2.49 5.62 41.16 41.16 0 0 0 -14.76 16.83h-8.58a8.85 8.85 0 0 0 5.82 7.78 41 41 0 0 0  .24 20.23h-5.16a8.83 8.83 0 0 0 8.39 8.28 41.11 41.11 0 0 0  9.64 12.14l-13.26 20 13.38.12 7-10.65a8.79 8.79 0 0 0 8.91-1 41 41 0 0 0  21.33 0 8.8 8.8 0 0 0  5.34 1.81 8.89 8.89 0 0 0  3.51-.74l7 10.58 13.38-.11-13.38-20.01a41 41 0 0 0 9.63-12.13 8.84 8.84 0 0 0  8.59-8.29h-5.32a41.09 41.09 0 0 0 1.39-10.58zm-8.24 18.2a37.44 37.44 0 0 1 -5 7l-14.5-14.53-1.7-2.55a13.88 13.88 0 0 0 2.47-6.35h23.43a37.32 37.32 0 0 1 -1.48 8.83h-8.65a8.81 8.81 0 0 0 5.43 7.6zm.77 29.37h-5l-28.41-43.14-28.41 43.18h-5l31.09-46.95v-.57-.11h0a2.35 2.35 0 0 1 4.69 0h0v .14.57zm-48-14.61 12.57-19.09h.27v23.47a36.55 36.55 0 0 1 -6.32-.84 8.66 8.66 0 0 0  1-3.54zm16.34-19.05h.27l12.57 19.05h-7.32a8.74 8.74 0 0 0 1 3.51 37.43 37.43 0 0 1 -6.48.87zm-12.28-13.91a10.53 10.53 0 1 1 19.85 4.9l-3.49-5.27a5.84 5.84 0 0 0 -11.66 0l-3.49 5.27a10.51 10.51 0 0 1 -1.21-4.9zm46.78-9.16a37.62 37.62 0 0 1 1.09 7.41h-23.43a14 14 0 0 0 -2.84-6.85l16.52-16.56a37.71 37.71 0 0 1 5.45 7.73h-5a8.84 8.84 0 0 0 8.21 8.27zm-11.1-18.47-16.56 16.56a13.93 13.93 0 0 0 -6.84-2.81v-23.47a38.08 38.08 0 0 1 6.45.87 8.82 8.82 0 0 0  7.87 4.84 8.64 8.64 0 0 0  3-.52 37.69 37.69 0 0 1  6.08 4.53zm-41.05-4a8.83 8.83 0 0 0 7.91-4.89 38.72 38.72 0 0 1  6.24-.82v23.46a14 14 0 0 0 -6.85 2.84l-16.56-16.59a37.32 37.32 0 0 1 6.17-4.57 8.86 8.86 0 0 0  3.09.56zm-11.73 6.47 16.56 16.56a14 14 0 0 0 -2.84 6.85h-23.43a37.63 37.63 0 0 1 1.08-7.4 8.83 8.83 0 0 0  8.34-8.28h-5.15a38.05 38.05 0 0 1 5.44-7.73zm-9.71 26.91h23.43a13.88 13.88 0 0 0 2.5 6.37l-1.71 2.57-14.51 14.43a37.32 37.32 0 0 1 -5-6.89 8.84 8.84 0 0 0  5.58-7.68h-8.81a36.82 36.82 0 0 1 -1.48-8.8z"></path>
  </g>
</svg>
