<?xml version="1.0" encoding="UTF-8"?>
<svg xmlns="http://www.w3.org/2000/svg" viewBox="0 0 125 100">
  <g fill="#4dbdeb">
    <path d="m45.39 22.65-5.39-9.2-4.83 8.88a5.84 5.84 0 0 0 5 8.86h0a5.85 5.85 0 0 0 5.8-5.9 6 6 0 0 0 -.58-2.64z"></path>
    <path d="m68.08 22.65-5.38-9.2-4.84 8.88a5.85 5.85 0 0 0 5 8.86h0a5.86 5.86 0 0 0 5.16-8.54z"></path>
    <path d="m89.69 22.65-5.38-9.2-4.83 8.87a5.85 5.85 0 0 0 5 8.87h.05a5.87 5.87 0 0 0 5.81-5.9 6 6 0 0 0 -.65-2.64z"></path>
    <path d="m108 56.87a15.55 15.55 0 0 0 -15.51-15.53h-5v-7.34h-5.85v7.35h-16.21v-7.7h-5.86v7.69h-16.21v-7.69h-5.85v7.69h-5a15.51 15.51 0 0 0 -12.34 24.93v31.73h84.66v-31.73a15.45 15.45 0 0 0 3.17-9.4zm-75.49-11.21h60a11.21 11.21 0 1 1 -9.88 16.54l-1.66-3-1.97 2.8a8.77 8.77 0 0 1 -14.62-.5l-1.84-3-1.84 3a8.77 8.77 0 0 1 -14.7.5l-2-2.81-1.64 3a11.21 11.21 0 1 1 -9.87-16.54zm-8 37.21h76v2h-76zm76 10.81h-76v-4.51h76zm-76-15.13v-8.4a15.31 15.31 0 0 0 8 2.26 15.54 15.54 0 0 0  12-5.7 13.11 13.11 0 0 0  18-.62 13 13 0 0 0  9.31 3.91 13.14 13.14 0 0 0  8.65-3.26 15.52 15.52 0 0 0  12 5.7 15.31 15.31 0 0 0  8-2.26v8.4z"></path>
  </g>
</svg>
